<?xml version="1.0" encoding="UTF-8" standalone="no"?>
<!DOCTYPE svg PUBLIC "-//W3C//DTD SVG 1.1//EN" "http://www.w3.org/Graphics/SVG/1.1/DTD/svg11.dtd">
<svg width="100%" height="100%" viewBox="0 0 24 24" version="1.1" xmlns="http://www.w3.org/2000/svg" xmlns:xlink="http://www.w3.org/1999/xlink" xml:space="preserve" xmlns:serif="http://www.serif.com/" style="fill-rule:evenodd;clip-rule:evenodd;stroke-linejoin:round;stroke-miterlimit:2;">
    <g transform="matrix(0.9,0,0,0.9,1.2,1.2)">
        <circle cx="12" cy="12" r="10" style="fill:#d1002e;"/>
    </g>
    <path d="M12,2C17.519,2 22,6.481 22,12C22,17.519 17.519,22 12,22C6.481,22 2,17.519 2,12C2,6.481 6.481,2 12,2ZM12,3C7.033,3 3,7.033 3,12C3,16.967 7.033,21 12,21C16.967,21 21,16.967 21,12C21,7.033 16.967,3 12,3Z" style="fill:#1f2937;"/>
    <g transform="matrix(5,0,0,2.5,-39,-6.5)">
        <path d="M9.4,7L9,7L9,5.4C9,5.294 9.021,5.192 9.059,5.117C9.096,5.042 9.147,5 9.2,5L10,5L10,5.8L9.8,5.8C9.694,5.8 9.592,5.884 9.517,6.034C9.442,6.184 9.4,6.388 9.4,6.6L9.4,7Z" style="fill:#9ca3af;"/>
    </g>
    <g transform="matrix(5,0,0,-2.5,-39,30.5)">
        <path d="M9.4,7L9,7L9,5.4C9,5.294 9.021,5.192 9.059,5.117C9.096,5.042 9.147,5 9.2,5L10,5L10,5.8L9.8,5.8C9.694,5.8 9.592,5.884 9.517,6.034C9.442,6.184 9.4,6.388 9.4,6.6L9.4,7Z" style="fill:#9ca3af;"/>
    </g>
    <g transform="matrix(0,5,-2.5,0,30.5,-39)">
        <path d="M9.4,7L9,7L9,5.4C9,5.294 9.021,5.192 9.059,5.117C9.096,5.042 9.147,5 9.2,5L10,5L10,5.8L9.8,5.8C9.694,5.8 9.592,5.884 9.517,6.034C9.442,6.184 9.4,6.388 9.4,6.6L9.4,7Z" style="fill:#9ca3af;"/>
    </g>
    <g transform="matrix(0,-5,-2.5,-0,30.5,63)">
        <path d="M9.4,7L9,7L9,5.4C9,5.294 9.021,5.192 9.059,5.117C9.096,5.042 9.147,5 9.2,5L10,5L10,5.8L9.8,5.8C9.694,5.8 9.592,5.884 9.517,6.034C9.442,6.184 9.4,6.388 9.4,6.6L9.4,7Z" style="fill:#9ca3af;"/>
    </g>
    <g transform="matrix(0.666667,0,0,0.666667,4,4)">
        <circle cx="12" cy="12" r="3" style="fill:#9ca3af;"/>
    </g>
</svg>
